<?xml version="1.0" encoding="UTF-8" standalone="no"?>
<!-- Generator: Adobe Illustrator 15.1.0, SVG Export Plug-In . SVG Version: 6.00 Build 0)  -->

<svg
   xmlns:dc="http://purl.org/dc/elements/1.1/"
   xmlns:cc="http://creativecommons.org/ns#"
   xmlns:rdf="http://www.w3.org/1999/02/22-rdf-syntax-ns#"
   xmlns:svg="http://www.w3.org/2000/svg"
   xmlns="http://www.w3.org/2000/svg"
   xmlns:sodipodi="http://sodipodi.sourceforge.net/DTD/sodipodi-0.dtd"
   xmlns:inkscape="http://www.inkscape.org/namespaces/inkscape"
   version="1.1"
   id="Layer_1"
   x="0px"
   y="0px"
   width="48"
   height="48"
   viewBox="0 0 48 48"
   enable-background="new 0 0 1024 1024"
   xml:space="preserve"
   inkscape:version="0.91 r13725"
   sodipodi:docname="bible_white.svg"><metadata
   id="metadata3402"><rdf:RDF><cc:Work
       rdf:about=""><dc:format>image/svg+xml</dc:format><dc:type
         rdf:resource="http://purl.org/dc/dcmitype/StillImage" /><dc:title></dc:title></cc:Work></rdf:RDF></metadata><defs
   id="defs3400" /><sodipodi:namedview
   pagecolor="#ffffff"
   bordercolor="#666666"
   borderopacity="1"
   objecttolerance="10"
   gridtolerance="10"
   guidetolerance="10"
   inkscape:pageopacity="0"
   inkscape:pageshadow="2"
   inkscape:window-width="962"
   inkscape:window-height="833"
   id="namedview3398"
   showgrid="false"
   inkscape:zoom="0.23046875"
   inkscape:cx="-227.79661"
   inkscape:cy="512"
   inkscape:window-x="0"
   inkscape:window-y="40"
   inkscape:window-maximized="0"
   inkscape:current-layer="Layer_1" />
<g
   display="none"
   id="g3358"
   style="display:none"
   transform="translate(0,-976)">
	<g
   display="inline"
   id="g3360"
   style="display:inline">
		<path
   d="m 0,258.115 0,570.023 437.138,0 c 0,0 -20.465,-60.939 -363.223,-55.175 L 73.192,258.115 0,258.115 Z"
   id="path3362"
   inkscape:connector-curvature="0" />
		<path
   d="m 110.768,200.346 0,535.105 c 0,0 278.713,-26.745 384.134,75.778 l 0,-535.759 c 0,0 -47.652,-79.435 -384.134,-75.124 z"
   id="path3364"
   inkscape:connector-curvature="0" />
	</g>
	<g
   display="inline"
   id="g3366"
   style="display:inline">
		<path
   d="m 1024,253.8 0,569.99 -437.102,0 c 0,0 20.429,-60.903 363.19,-55.143 l 0.724,-514.848 73.188,0 z"
   id="path3368"
   inkscape:connector-curvature="0" />
		<path
   d="m 913.269,196.035 0,535.069 c 0,0 -278.714,-26.708 -384.135,75.847 l 0,-535.829 c 0,0 47.652,-79.435 384.135,-75.087 z"
   id="path3370"
   inkscape:connector-curvature="0" />
	</g>
</g>
<g
   id="g3372"
   transform="matrix(0.04687516,0,0,0.04687516,-8e-5,3e-4)">
	<g
   id="g3374">
		<path
   d="m 0,258.115 0,570.023 437.138,0 c 0,0 -20.465,-60.939 -363.223,-55.175 L 73.192,258.115 0,258.115 Z"
   id="path3376"
   inkscape:connector-curvature="0"
   style="fill:#ffffff" />
		<path
   d="m 110.768,200.346 0,535.105 c 0,0 278.713,-26.745 384.134,75.778 l 0,-535.759 c 0,0 -47.652,-79.435 -384.134,-75.124 z"
   id="path3378"
   inkscape:connector-curvature="0"
   style="fill:#ffffff" />
	</g>
	<g
   id="g3380">
		<path
   d="m 1024,253.8 0,569.99 -437.102,0 c 0,0 20.429,-60.903 363.19,-55.143 l 0.724,-514.848 73.188,0 z"
   id="path3382"
   inkscape:connector-curvature="0"
   style="fill:#ffffff" />
		<path
   d="m 913.269,196.035 0,535.069 c 0,0 -278.714,-26.708 -384.135,75.847 l 0,-535.829 c 0,0 47.652,-79.435 384.135,-75.087 z"
   id="path3384"
   inkscape:connector-curvature="0"
   style="fill:#ffffff" />
	</g>
</g>
<g
   id="g3386"
   transform="translate(0,-976)">
	<rect
   x="-371.867"
   y="217.433"
   width="36.368"
   height="36.367001"
   id="rect3388"
   style="fill:none" />
	<g
   id="g3390"
   style="opacity:0.54000005">
		<circle
   cx="-353.85501"
   cy="235.87199"
   r="4.691"
   id="circle3392" />
		<path
   d="m -341.113,226.924 -8.656,0 0,-0.972 c 0,-1.291 0,-1.155 0,-1.155 l -8.072,0 c 0,0 0,-0.136 0,1.155 l 0,0.972 c 0,0 -0.868,-0.014 -1.604,0 -0.735,0.013 -1.565,0.289 -1.565,0.289 l -5.572,1.8 c 0,0 0.013,0.781 0,1.34 -0.015,0.558 0,13.106 0,13.106 0,0.645 0,1.167 0,1.167 0,0 25.44,-0.002 25.471,0 0.032,0.003 0,-0.522 0,-1.167 l 0,-15.368 c -0.002,-0.644 -0.002,-1.167 -0.002,-1.167 z m -12.741,15.803 c -3.787,0 -6.855,-3.068 -6.855,-6.854 0,-3.786 3.068,-6.855 6.855,-6.855 3.785,0 6.854,3.069 6.854,6.855 0,3.785 -3.068,6.854 -6.854,6.854 z"
   id="path3394"
   inkscape:connector-curvature="0" />
		<path
   d="m -361.451,226.33 -4.074,1.381 0,-1.869 c 0,-0.199 0,-0.36 0,-0.36 l 4.074,0 c 0,0 0,0.161 0,0.36 l 0,0.488 z"
   id="path3396"
   inkscape:connector-curvature="0" />
	</g>
</g>
</svg>