<?xml version="1.0" encoding="UTF-8" standalone="no"?>
<!-- Generator: Adobe Illustrator 15.1.0, SVG Export Plug-In . SVG Version: 6.00 Build 0)  -->

<svg
   xmlns:dc="http://purl.org/dc/elements/1.1/"
   xmlns:cc="http://creativecommons.org/ns#"
   xmlns:rdf="http://www.w3.org/1999/02/22-rdf-syntax-ns#"
   xmlns:svg="http://www.w3.org/2000/svg"
   xmlns="http://www.w3.org/2000/svg"
   xmlns:sodipodi="http://sodipodi.sourceforge.net/DTD/sodipodi-0.dtd"
   xmlns:inkscape="http://www.inkscape.org/namespaces/inkscape"
   version="1.1"
   id="Layer_1"
   x="0px"
   y="0px"
   width="48"
   height="48"
   viewBox="0 0 48 48"
   enable-background="new 0 0 1024 1024"
   xml:space="preserve"
   inkscape:version="0.91 r13725"
   sodipodi:docname="bible_black.svg"><metadata
   id="metadata3355"><rdf:RDF><cc:Work
       rdf:about=""><dc:format>image/svg+xml</dc:format><dc:type
         rdf:resource="http://purl.org/dc/dcmitype/StillImage" /><dc:title></dc:title></cc:Work></rdf:RDF></metadata><defs
   id="defs3353" /><sodipodi:namedview
   pagecolor="#ffffff"
   bordercolor="#666666"
   borderopacity="1"
   objecttolerance="10"
   gridtolerance="10"
   guidetolerance="10"
   inkscape:pageopacity="0"
   inkscape:pageshadow="2"
   inkscape:window-width="1517"
   inkscape:window-height="1262"
   id="namedview3351"
   showgrid="false"
   inkscape:zoom="0.8984375"
   inkscape:cx="-13.982689"
   inkscape:cy="1.3197292"
   inkscape:window-x="27"
   inkscape:window-y="80"
   inkscape:window-maximized="0"
   inkscape:current-layer="Layer_1" />
<g
   id="g3337"
   transform="matrix(0.04687516,0,0,0.04687516,-8e-5,3e-4)">
	<g
   id="g3339">
		<path
   d="m 0,258.115 0,570.023 437.138,0 c 0,0 -20.465,-60.939 -363.223,-55.175 L 73.192,258.115 0,258.115 Z"
   id="path3341"
   inkscape:connector-curvature="0" />
		<path
   d="m 110.768,200.346 0,535.105 c 0,0 278.713,-26.745 384.134,75.778 l 0,-535.759 c 0,0 -47.652,-79.435 -384.134,-75.124 z"
   id="path3343"
   inkscape:connector-curvature="0" />
	</g>
	<g
   id="g3345">
		<path
   d="m 1024,253.8 0,569.99 -437.102,0 c 0,0 20.429,-60.903 363.19,-55.143 l 0.724,-514.848 73.188,0 z"
   id="path3347"
   inkscape:connector-curvature="0" />
		<path
   d="m 913.269,196.035 0,535.069 c 0,0 -278.714,-26.708 -384.135,75.847 l 0,-535.829 c 0,0 47.652,-79.435 384.135,-75.087 z"
   id="path3349"
   inkscape:connector-curvature="0" />
	</g>
</g>
</svg>