<?xml version="1.0" encoding="UTF-8" standalone="no"?>
<!-- Generator: Adobe Illustrator 15.1.0, SVG Export Plug-In . SVG Version: 6.00 Build 0)  -->

<svg
   xmlns:dc="http://purl.org/dc/elements/1.1/"
   xmlns:cc="http://creativecommons.org/ns#"
   xmlns:rdf="http://www.w3.org/1999/02/22-rdf-syntax-ns#"
   xmlns:svg="http://www.w3.org/2000/svg"
   xmlns="http://www.w3.org/2000/svg"
   xmlns:sodipodi="http://sodipodi.sourceforge.net/DTD/sodipodi-0.dtd"
   xmlns:inkscape="http://www.inkscape.org/namespaces/inkscape"
   version="1.1"
   id="Layer_1"
   x="0px"
   y="0px"
   width="48"
   height="48"
   viewBox="0 0 48 48"
   enable-background="new 0 0 1024 1024"
   xml:space="preserve"
   inkscape:version="0.91 r13725"
   sodipodi:docname="camera_black.svg"><metadata
   id="metadata3701"><rdf:RDF><cc:Work
       rdf:about=""><dc:format>image/svg+xml</dc:format><dc:type
         rdf:resource="http://purl.org/dc/dcmitype/StillImage" /><dc:title></dc:title></cc:Work></rdf:RDF></metadata><defs
   id="defs3699" /><sodipodi:namedview
   pagecolor="#ffffff"
   bordercolor="#666666"
   borderopacity="1"
   objecttolerance="10"
   gridtolerance="10"
   guidetolerance="10"
   inkscape:pageopacity="0"
   inkscape:pageshadow="2"
   inkscape:window-width="1050"
   inkscape:window-height="1618"
   id="namedview3697"
   showgrid="false"
   inkscape:zoom="0.56542969"
   inkscape:cx="512"
   inkscape:cy="512"
   inkscape:window-x="-8"
   inkscape:window-y="32"
   inkscape:window-maximized="1"
   inkscape:current-layer="Layer_1" />
<g
   id="bible_white"
   display="none"
   style="display:none"
   transform="translate(0,-976)">
	<g
   display="inline"
   id="g3644"
   style="display:inline">
		<path
   d="m 0,251.818 0,570.023 437.138,0 c 0,0 -20.465,-60.939 -363.223,-55.175 L 73.192,251.818 0,251.818 Z"
   id="path3646"
   inkscape:connector-curvature="0"
   style="fill:#ffffff" />
		<path
   d="m 110.768,194.049 0,535.105 c 0,0 278.713,-26.745 384.134,75.778 l 0,-535.759 c 0,0 -47.652,-79.435 -384.134,-75.124 z"
   id="path3648"
   inkscape:connector-curvature="0"
   style="fill:#ffffff" />
	</g>
	<g
   display="inline"
   id="g3650"
   style="display:inline">
		<path
   d="m 1024,247.503 0,569.99 -437.102,0 c 0,0 20.429,-60.903 363.19,-55.143 l 0.724,-514.848 73.188,0 z"
   id="path3652"
   inkscape:connector-curvature="0"
   style="fill:#ffffff" />
		<path
   d="m 913.269,189.738 0,535.069 c 0,0 -278.714,-26.708 -384.135,75.847 l 0,-535.829 c 0,0 47.652,-79.435 384.135,-75.087 z"
   id="path3654"
   inkscape:connector-curvature="0"
   style="fill:#ffffff" />
	</g>
</g>
<g
   id="bible_black_1_"
   display="none"
   style="display:none"
   transform="translate(0,-976)">
	<g
   display="inline"
   id="g3657"
   style="display:inline">
		<path
   d="m 0,251.818 0,570.023 437.138,0 c 0,0 -20.465,-60.939 -363.223,-55.175 L 73.192,251.818 0,251.818 Z"
   id="path3659"
   inkscape:connector-curvature="0" />
		<path
   d="m 110.768,194.049 0,535.105 c 0,0 278.713,-26.745 384.134,75.778 l 0,-535.759 c 0,0 -47.652,-79.435 -384.134,-75.124 z"
   id="path3661"
   inkscape:connector-curvature="0" />
	</g>
	<g
   display="inline"
   id="g3663"
   style="display:inline">
		<path
   d="m 1024,247.503 0,569.99 -437.102,0 c 0,0 20.429,-60.903 363.19,-55.143 l 0.724,-514.848 73.188,0 z"
   id="path3665"
   inkscape:connector-curvature="0" />
		<path
   d="m 913.269,189.738 0,535.069 c 0,0 -278.714,-26.708 -384.135,75.847 l 0,-535.829 c 0,0 47.652,-79.435 384.135,-75.087 z"
   id="path3667"
   inkscape:connector-curvature="0" />
	</g>
</g>
<polygon
   id="left_arrow_white"
   display="none"
   points="602.827,935.137 243.922,576.279 1026.008,576.279 1026.008,447.767 243.922,447.767 602.827,88.863 511.958,-2.011 -2.008,512.003 511.958,1026.011 "
   style="display:none;fill:#ffffff"
   transform="translate(0,-976)" />
<polygon
   id="left_arrow_black_1_"
   display="none"
   points="602.827,935.137 243.922,576.279 1026.008,576.279 1026.008,447.767 243.922,447.767 602.827,88.863 511.958,-2.011 -2.008,512.003 511.958,1026.011 "
   style="display:none"
   transform="translate(0,-976)" />
<polygon
   id="right_arrow_white"
   display="none"
   points="422.182,935.324 512.961,1026.021 1025.928,512.967 512.961,0 422.182,90.698 780.476,448.903 0,448.903 0,577.077 780.476,577.077 "
   style="display:none;fill:#ffffff"
   transform="translate(0,-976)" />
<polygon
   id="right_arrow_black_1_"
   display="none"
   points="422.182,935.324 512.961,1026.021 1025.928,512.967 512.961,0 422.182,90.698 780.476,448.903 0,448.903 0,577.077 780.476,577.077 "
   style="display:none"
   transform="translate(0,-976)" />
<g
   id="camera_white"
   display="none"
   style="display:none"
   transform="translate(0,-976)">
	<path
   display="inline"
   d="m 700.066,558.715 c 0,104.097 -84.361,188.537 -188.42,188.537 -104.136,0 -188.538,-84.44 -188.538,-188.537 0,-104.019 84.402,-188.417 188.538,-188.417 104.059,-10e-4 188.42,84.398 188.42,188.417 z"
   id="path3674"
   inkscape:connector-curvature="0"
   style="display:inline;fill:#ffffff" />
	<path
   display="inline"
   d="m 1023.542,199.182 -347.803,0 0,-39.042 c 0,-51.874 0,-46.419 0,-46.419 l -324.34,0 c 0,0 0,-5.455 0,46.419 l 0,39.042 c 0,0 -34.881,-0.55 -64.468,0 -29.544,0.509 -62.898,11.612 -62.898,11.612 L 0.145,283.111 c 0,0 0.509,31.39 0,53.833 -0.588,22.406 0,526.609 0,526.609 0,25.897 0,46.89 0,46.89 0,0 1022.18,-0.079 1023.397,0 1.294,0.117 0,-20.992 0,-46.89 l 0,-617.484 c 0,-25.856 0,-46.887 0,-46.887 z M 511.646,834.124 c -152.164,0 -275.448,-123.284 -275.448,-275.368 0,-152.125 123.284,-275.448 275.448,-275.448 152.086,0 275.372,123.323 275.372,275.448 0,152.084 -123.286,275.368 -275.372,275.368 z"
   id="path3676"
   inkscape:connector-curvature="0"
   style="display:inline;fill:#ffffff" />
	<path
   display="inline"
   d="m 206.378,175.323 -163.699,55.485 0,-75.101 c 0,-8.007 0,-14.479 0,-14.479 l 163.699,0 c 0,0 0,6.472 0,14.479 l 0,19.616 z"
   id="path3678"
   inkscape:connector-curvature="0"
   style="display:inline;fill:#ffffff" />
</g>
<g
   id="camera_black_1_"
   transform="matrix(0.0468645,0,0,0.0468645,0.00575,0.08376)">
	<path
   d="m 700.066,558.715 c 0,104.097 -84.361,188.537 -188.42,188.537 -104.136,0 -188.538,-84.44 -188.538,-188.537 0,-104.019 84.402,-188.417 188.538,-188.417 104.059,-10e-4 188.42,84.398 188.42,188.417 z"
   id="path3681"
   inkscape:connector-curvature="0" />
	<path
   d="m 1023.542,199.182 -347.803,0 0,-39.042 c 0,-51.874 0,-46.419 0,-46.419 l -324.34,0 c 0,0 0,-5.455 0,46.419 l 0,39.042 c 0,0 -34.881,-0.55 -64.468,0 -29.544,0.509 -62.898,11.612 -62.898,11.612 L 0.145,283.111 c 0,0 0.509,31.39 0,53.833 -0.588,22.406 0,526.609 0,526.609 0,25.897 0,46.89 0,46.89 0,0 1022.18,-0.079 1023.397,0 1.294,0.117 0,-20.992 0,-46.89 l 0,-617.484 c 0,-25.856 0,-46.887 0,-46.887 z M 511.646,834.124 c -152.164,0 -275.448,-123.284 -275.448,-275.368 0,-152.125 123.284,-275.448 275.448,-275.448 152.086,0 275.372,123.323 275.372,275.448 0,152.084 -123.286,275.368 -275.372,275.368 z"
   id="path3683"
   inkscape:connector-curvature="0" />
	<path
   d="m 206.378,175.323 -163.699,55.485 0,-75.101 c 0,-8.007 0,-14.479 0,-14.479 l 163.699,0 c 0,0 0,6.472 0,14.479 l 0,19.616 z"
   id="path3685"
   inkscape:connector-curvature="0" />
</g>
<g
   id="video_white"
   display="none"
   style="display:none"
   transform="translate(0,-976)">
	<polygon
   display="inline"
   points="971.06,271.143 773.272,388.309 773.272,629.659 971.06,747.51 1020.566,747.51 1020.566,271.143 "
   id="polygon3688"
   style="display:inline;fill:#ffffff" />
	<path
   display="inline"
   d="m 3.434,318.215 0,387.483 c 0,53.32 43.089,96.37 96.283,96.37 l 625.457,0 0,-580.136 -625.457,0 c -53.195,0 -96.283,43.003 -96.283,96.283 z"
   id="path3690"
   inkscape:connector-curvature="0"
   style="display:inline;fill:#ffffff" />
</g>
<g
   id="video_black_1_"
   display="none"
   style="display:none"
   transform="translate(0,-976)">
	<polygon
   display="inline"
   points="971.06,271.143 773.272,388.309 773.272,629.659 971.06,747.51 1020.566,747.51 1020.566,271.143 "
   id="polygon3693"
   style="display:inline" />
	<path
   display="inline"
   d="m 3.434,318.215 0,387.483 c 0,53.32 43.089,96.37 96.283,96.37 l 625.457,0 0,-580.136 -625.457,0 c -53.195,0 -96.283,43.003 -96.283,96.283 z"
   id="path3695"
   inkscape:connector-curvature="0"
   style="display:inline" />
</g>
</svg>