<?xml version="1.0" encoding="UTF-8" standalone="no"?>
<!-- Generator: Adobe Illustrator 15.1.0, SVG Export Plug-In . SVG Version: 6.00 Build 0)  -->

<svg
   xmlns:dc="http://purl.org/dc/elements/1.1/"
   xmlns:cc="http://creativecommons.org/ns#"
   xmlns:rdf="http://www.w3.org/1999/02/22-rdf-syntax-ns#"
   xmlns:svg="http://www.w3.org/2000/svg"
   xmlns="http://www.w3.org/2000/svg"
   xmlns:sodipodi="http://sodipodi.sourceforge.net/DTD/sodipodi-0.dtd"
   xmlns:inkscape="http://www.inkscape.org/namespaces/inkscape"
   version="1.1"
   id="Layer_1"
   x="0px"
   y="0px"
   width="48"
   height="48"
   viewBox="0 0 48 48"
   enable-background="new 0 0 1024 1024"
   xml:space="preserve"
   inkscape:version="0.91 r13725"
   sodipodi:docname="move_black.svg"><metadata
   id="metadata4575"><rdf:RDF><cc:Work
       rdf:about=""><dc:format>image/svg+xml</dc:format><dc:type
         rdf:resource="http://purl.org/dc/dcmitype/StillImage" /><dc:title></dc:title></cc:Work></rdf:RDF></metadata><defs
   id="defs4573" /><sodipodi:namedview
   pagecolor="#ffffff"
   bordercolor="#666666"
   borderopacity="1"
   objecttolerance="10"
   gridtolerance="10"
   guidetolerance="10"
   inkscape:pageopacity="0"
   inkscape:pageshadow="2"
   inkscape:window-width="1050"
   inkscape:window-height="1618"
   id="namedview4571"
   showgrid="false"
   inkscape:zoom="0.56542969"
   inkscape:cx="512"
   inkscape:cy="512"
   inkscape:window-x="-8"
   inkscape:window-y="32"
   inkscape:window-maximized="1"
   inkscape:current-layer="Layer_1" />
<g
   id="bible_white"
   display="none"
   style="display:none"
   transform="translate(0,-976)">
	<g
   display="inline"
   id="g4472"
   style="display:inline">
		<path
   d="m 0,251.818 0,570.023 437.138,0 c 0,0 -20.465,-60.939 -363.223,-55.175 L 73.192,251.818 0,251.818 Z"
   id="path4474"
   inkscape:connector-curvature="0"
   style="fill:#ffffff" />
		<path
   d="m 110.768,194.049 0,535.105 c 0,0 278.713,-26.745 384.134,75.778 l 0,-535.759 c 0,0 -47.652,-79.435 -384.134,-75.124 z"
   id="path4476"
   inkscape:connector-curvature="0"
   style="fill:#ffffff" />
	</g>
	<g
   display="inline"
   id="g4478"
   style="display:inline">
		<path
   d="m 1024,247.503 0,569.99 -437.102,0 c 0,0 20.429,-60.903 363.19,-55.143 l 0.724,-514.848 73.188,0 z"
   id="path4480"
   inkscape:connector-curvature="0"
   style="fill:#ffffff" />
		<path
   d="m 913.269,189.738 0,535.069 c 0,0 -278.714,-26.708 -384.135,75.847 l 0,-535.829 c 0,0 47.652,-79.435 384.135,-75.087 z"
   id="path4482"
   inkscape:connector-curvature="0"
   style="fill:#ffffff" />
	</g>
</g>
<g
   id="bible_black_1_"
   display="none"
   style="display:none"
   transform="translate(0,-976)">
	<g
   display="inline"
   id="g4485"
   style="display:inline">
		<path
   d="m 0,251.818 0,570.023 437.138,0 c 0,0 -20.465,-60.939 -363.223,-55.175 L 73.192,251.818 0,251.818 Z"
   id="path4487"
   inkscape:connector-curvature="0" />
		<path
   d="m 110.768,194.049 0,535.105 c 0,0 278.713,-26.745 384.134,75.778 l 0,-535.759 c 0,0 -47.652,-79.435 -384.134,-75.124 z"
   id="path4489"
   inkscape:connector-curvature="0" />
	</g>
	<g
   display="inline"
   id="g4491"
   style="display:inline">
		<path
   d="m 1024,247.503 0,569.99 -437.102,0 c 0,0 20.429,-60.903 363.19,-55.143 l 0.724,-514.848 73.188,0 z"
   id="path4493"
   inkscape:connector-curvature="0" />
		<path
   d="m 913.269,189.738 0,535.069 c 0,0 -278.714,-26.708 -384.135,75.847 l 0,-535.829 c 0,0 47.652,-79.435 384.135,-75.087 z"
   id="path4495"
   inkscape:connector-curvature="0" />
	</g>
</g>
<polygon
   id="left_arrow_white"
   display="none"
   points="602.827,935.137 243.922,576.279 1026.008,576.279 1026.008,447.767 243.922,447.767 602.827,88.863 511.958,-2.011 -2.008,512.003 511.958,1026.011 "
   style="display:none;fill:#ffffff"
   transform="translate(0,-976)" />
<polygon
   id="left_arrow_black_1_"
   display="none"
   points="602.827,935.137 243.922,576.279 1026.008,576.279 1026.008,447.767 243.922,447.767 602.827,88.863 511.958,-2.011 -2.008,512.003 511.958,1026.011 "
   style="display:none"
   transform="translate(0,-976)" />
<polygon
   id="right_arrow_white"
   display="none"
   points="422.182,935.324 512.961,1026.021 1025.928,512.967 512.961,0 422.182,90.698 780.476,448.903 0,448.903 0,577.077 780.476,577.077 "
   style="display:none;fill:#ffffff"
   transform="translate(0,-976)" />
<polygon
   id="right_arrow_black_1_"
   display="none"
   points="422.182,935.324 512.961,1026.021 1025.928,512.967 512.961,0 422.182,90.698 780.476,448.903 0,448.903 0,577.077 780.476,577.077 "
   style="display:none"
   transform="translate(0,-976)" />
<g
   id="camera_white"
   display="none"
   style="display:none"
   transform="translate(0,-976)">
	<path
   display="inline"
   d="m 700.066,558.715 c 0,104.097 -84.361,188.537 -188.42,188.537 -104.136,0 -188.538,-84.44 -188.538,-188.537 0,-104.019 84.402,-188.417 188.538,-188.417 104.059,-10e-4 188.42,84.398 188.42,188.417 z"
   id="path4502"
   inkscape:connector-curvature="0"
   style="display:inline;fill:#ffffff" />
	<path
   display="inline"
   d="m 1023.542,199.182 -347.803,0 0,-39.042 c 0,-51.874 0,-46.419 0,-46.419 l -324.34,0 c 0,0 0,-5.455 0,46.419 l 0,39.042 c 0,0 -34.881,-0.55 -64.468,0 -29.544,0.509 -62.898,11.612 -62.898,11.612 L 0.145,283.111 c 0,0 0.509,31.39 0,53.833 -0.588,22.406 0,526.609 0,526.609 0,25.897 0,46.89 0,46.89 0,0 1022.18,-0.079 1023.397,0 1.294,0.117 0,-20.992 0,-46.89 l 0,-617.484 c 0,-25.856 0,-46.887 0,-46.887 z M 511.646,834.124 c -152.164,0 -275.448,-123.284 -275.448,-275.368 0,-152.125 123.284,-275.448 275.448,-275.448 152.086,0 275.372,123.323 275.372,275.448 0,152.084 -123.286,275.368 -275.372,275.368 z"
   id="path4504"
   inkscape:connector-curvature="0"
   style="display:inline;fill:#ffffff" />
	<path
   display="inline"
   d="m 206.378,175.323 -163.699,55.485 0,-75.101 c 0,-8.007 0,-14.479 0,-14.479 l 163.699,0 c 0,0 0,6.472 0,14.479 l 0,19.616 z"
   id="path4506"
   inkscape:connector-curvature="0"
   style="display:inline;fill:#ffffff" />
</g>
<g
   id="camera_black_1_"
   display="none"
   style="display:none"
   transform="translate(0,-976)">
	<path
   display="inline"
   d="m 700.066,558.715 c 0,104.097 -84.361,188.537 -188.42,188.537 -104.136,0 -188.538,-84.44 -188.538,-188.537 0,-104.019 84.402,-188.417 188.538,-188.417 104.059,-10e-4 188.42,84.398 188.42,188.417 z"
   id="path4509"
   inkscape:connector-curvature="0"
   style="display:inline" />
	<path
   display="inline"
   d="m 1023.542,199.182 -347.803,0 0,-39.042 c 0,-51.874 0,-46.419 0,-46.419 l -324.34,0 c 0,0 0,-5.455 0,46.419 l 0,39.042 c 0,0 -34.881,-0.55 -64.468,0 -29.544,0.509 -62.898,11.612 -62.898,11.612 L 0.145,283.111 c 0,0 0.509,31.39 0,53.833 -0.588,22.406 0,526.609 0,526.609 0,25.897 0,46.89 0,46.89 0,0 1022.18,-0.079 1023.397,0 1.294,0.117 0,-20.992 0,-46.89 l 0,-617.484 c 0,-25.856 0,-46.887 0,-46.887 z M 511.646,834.124 c -152.164,0 -275.448,-123.284 -275.448,-275.368 0,-152.125 123.284,-275.448 275.448,-275.448 152.086,0 275.372,123.323 275.372,275.448 0,152.084 -123.286,275.368 -275.372,275.368 z"
   id="path4511"
   inkscape:connector-curvature="0"
   style="display:inline" />
	<path
   display="inline"
   d="m 206.378,175.323 -163.699,55.485 0,-75.101 c 0,-8.007 0,-14.479 0,-14.479 l 163.699,0 c 0,0 0,6.472 0,14.479 l 0,19.616 z"
   id="path4513"
   inkscape:connector-curvature="0"
   style="display:inline" />
</g>
<g
   id="video_white"
   display="none"
   style="display:none"
   transform="translate(0,-976)">
	<polygon
   display="inline"
   points="971.06,271.143 773.272,388.309 773.272,629.659 971.06,747.51 1020.566,747.51 1020.566,271.143 "
   id="polygon4516"
   style="display:inline;fill:#ffffff" />
	<path
   display="inline"
   d="m 3.434,318.215 0,387.483 c 0,53.32 43.089,96.37 96.283,96.37 l 625.457,0 0,-580.136 -625.457,0 c -53.195,0 -96.283,43.003 -96.283,96.283 z"
   id="path4518"
   inkscape:connector-curvature="0"
   style="display:inline;fill:#ffffff" />
</g>
<g
   id="video_black_1_"
   display="none"
   style="display:none"
   transform="translate(0,-976)">
	<polygon
   display="inline"
   points="971.06,271.143 773.272,388.309 773.272,629.659 971.06,747.51 1020.566,747.51 1020.566,271.143 "
   id="polygon4521"
   style="display:inline" />
	<path
   display="inline"
   d="m 3.434,318.215 0,387.483 c 0,53.32 43.089,96.37 96.283,96.37 l 625.457,0 0,-580.136 -625.457,0 c -53.195,0 -96.283,43.003 -96.283,96.283 z"
   id="path4523"
   inkscape:connector-curvature="0"
   style="display:inline" />
</g>
<g
   id="move_white"
   display="none"
   style="display:none"
   transform="translate(0,-976)">
	<polygon
   display="inline"
   points="549.414,658.696 338.776,869.334 338.776,410.321 263.348,410.321 263.348,869.334 52.712,658.696 -0.627,712.036 301.063,1013.7 602.729,712.036 "
   id="polygon4526"
   style="display:inline;fill:#ffffff" />
	<polygon
   display="inline"
   points="971.287,365.304 1024.627,312.017 722.91,10.3 421.246,312.017 474.586,365.304 685.223,154.667 685.223,613.682 760.625,613.682 760.625,154.667 "
   id="polygon4528"
   style="display:inline;fill:#ffffff" />
</g>
<g
   id="move_black_1_"
   transform="matrix(0.04681782,0,0,0.04681782,0.02928,0.02928)">
	<polygon
   points="338.776,410.321 263.348,410.321 263.348,869.334 52.712,658.696 -0.627,712.036 301.063,1013.7 602.729,712.036 549.414,658.696 338.776,869.334 "
   id="polygon4531" />
	<polygon
   points="722.91,10.3 421.246,312.017 474.586,365.304 685.223,154.667 685.223,613.682 760.625,613.682 760.625,154.667 971.287,365.304 1024.627,312.017 "
   id="polygon4533" />
</g>
<path
   id="bold_white"
   display="none"
   d="m 745.951,-479.325 c 70.134,-48.908 119.756,-128.229 119.756,-202.289 0,-163.632 -126.607,-290.278 -290.244,-290.278 l -453.442,0 0,1015.783 510.904,0 c 152.032,0 269.055,-123.16 269.055,-275.07 -10e-4,-110.014 -62.611,-204.189 -156.029,-248.146 m -406.274,-311.15 217.69,0 c 60.075,0 108.823,48.747 108.823,108.861 0,60.077 -48.748,108.79 -108.823,108.79 l -217.69,0 0,-217.651 z m 253.962,652.993 -253.962,0 0,-217.653 253.962,0 c 60.077,0 108.828,48.752 108.828,108.867 0,60.077 -48.751,108.786 -108.828,108.786"
   inkscape:connector-curvature="0"
   style="display:none;fill:#ffffff" />
<path
   id="bold_black_1_"
   display="none"
   d="m 745.951,-479.325 c 70.134,-48.908 119.756,-128.229 119.756,-202.289 0,-163.632 -126.607,-290.278 -290.244,-290.278 l -453.442,0 0,1015.783 510.904,0 c 152.032,0 269.055,-123.16 269.055,-275.07 -10e-4,-110.014 -62.611,-204.189 -156.029,-248.146 m -406.274,-311.15 217.69,0 c 60.075,0 108.823,48.747 108.823,108.861 0,60.077 -48.748,108.79 -108.823,108.79 l -217.69,0 0,-217.651 z m 253.962,652.993 -253.962,0 0,-217.653 253.962,0 c 60.077,0 108.828,48.752 108.828,108.867 0,60.077 -48.751,108.786 -108.828,108.786"
   inkscape:connector-curvature="0"
   style="display:none" />
<polygon
   id="favorite_white"
   display="none"
   points="195.173,999.631 278,639.52 -0.714,396.873 367.396,364.463 512.043,24.37 656.664,364.463 1024.715,396.873 746.027,639.52 828.881,999.631 512.043,809.514 "
   style="display:none;fill:#ffffff"
   transform="translate(0,-976)" />
<polygon
   id="favorite_black_1_"
   display="none"
   points="195.173,999.631 278,639.52 -0.714,396.873 367.396,364.463 512.043,24.37 656.664,364.463 1024.715,396.873 746.027,639.52 828.881,999.631 512.043,809.514 "
   style="display:none"
   transform="translate(0,-976)" />
<g
   id="edit_white"
   display="none"
   style="display:none"
   transform="translate(0,-976)">
	<path
   display="inline"
   d="M 495.244,284.601 176.283,606.746 c 0,0 27.486,25.951 98.221,22.821 15.109,32.181 29.391,70.107 111.992,108.918 -3.331,67.377 29.107,105.163 29.107,105.163 L 734.734,521.813 C 730.865,477.911 698.001,423.225 645.903,371.724 574.655,301.13 515.047,287.388 495.244,284.601 Z"
   id="path4540"
   inkscape:connector-curvature="0"
   style="display:inline;fill:#ffffff" />
	<path
   display="inline"
   d="M 956.641,54.214 C 863.002,-22.525 798.27,-0.018 765.265,31.736 c -11.438,11.067 -47.66,40.261 -74.149,61.488 29.82,1.934 89.741,14.795 155.581,79.895 65.442,64.789 77.906,120.215 78.617,151.145 22.28,-28.796 57.192,-73.835 62.625,-79.3 36.022,-36.703 62.371,-113.983 -31.298,-190.75 z"
   id="path4542"
   inkscape:connector-curvature="0"
   style="display:inline;fill:#ffffff" />
	<path
   display="inline"
   d="m 227.812,667.979 c -63.222,0.171 -77.961,-14 -77.961,-14 L 3.059,1021.71 369.394,869.54 c 0,0 -29.077,-57.53 -28.34,-88.374 -25.606,-8.139 -92.672,-48.884 -113.242,-113.187 z"
   id="path4544"
   inkscape:connector-curvature="0"
   style="display:inline;fill:#ffffff" />
	<path
   display="inline"
   d="m 649.944,128.59 -36.363,35.766 c 0,0 69.425,11.324 151.713,92.872 51.642,51.271 79.525,105.503 84.506,143.403 l 34.713,-34.656 c 0,0 12.091,-62.711 -77.167,-151.912 C 719.655,126.372 649.944,128.59 649.944,128.59 Z"
   id="path4546"
   inkscape:connector-curvature="0"
   style="display:inline;fill:#ffffff" />
	<path
   display="inline"
   d="m 581.344,208.971 -34.742,34.258 c 0,0 66.494,10.811 145.197,88.972 49.451,49.026 76.196,100.924 80.978,137.23 l 33.176,-33.232 c 0,0 11.554,-60.037 -73.863,-145.426 -83.94,-83.965 -150.746,-81.802 -150.746,-81.802 z"
   id="path4548"
   inkscape:connector-curvature="0"
   style="display:inline;fill:#ffffff" />
</g>
<g
   id="edit_black_1_"
   display="none"
   style="display:none"
   transform="translate(0,-976)">
	<path
   display="inline"
   d="M 495.244,284.601 176.283,606.746 c 0,0 27.486,25.951 98.221,22.821 15.109,32.181 29.391,70.107 111.992,108.918 -3.331,67.377 29.107,105.163 29.107,105.163 L 734.734,521.813 C 730.865,477.911 698.001,423.225 645.903,371.724 574.655,301.13 515.047,287.388 495.244,284.601 Z"
   id="path4551"
   inkscape:connector-curvature="0"
   style="display:inline" />
	<path
   display="inline"
   d="M 956.641,54.214 C 863.002,-22.525 798.27,-0.018 765.265,31.736 c -11.438,11.067 -47.66,40.261 -74.149,61.488 29.82,1.934 89.741,14.795 155.581,79.895 65.442,64.789 77.906,120.215 78.617,151.145 22.28,-28.796 57.192,-73.835 62.625,-79.3 36.022,-36.703 62.371,-113.983 -31.298,-190.75 z"
   id="path4553"
   inkscape:connector-curvature="0"
   style="display:inline" />
	<path
   display="inline"
   d="m 227.812,667.979 c -63.222,0.171 -77.961,-14 -77.961,-14 L 3.059,1021.71 369.394,869.54 c 0,0 -29.077,-57.53 -28.34,-88.374 -25.606,-8.139 -92.672,-48.884 -113.242,-113.187 z"
   id="path4555"
   inkscape:connector-curvature="0"
   style="display:inline" />
	<path
   display="inline"
   d="m 649.944,128.59 -36.363,35.766 c 0,0 69.425,11.324 151.713,92.872 51.642,51.271 79.525,105.503 84.506,143.403 l 34.713,-34.656 c 0,0 12.091,-62.711 -77.167,-151.912 C 719.655,126.372 649.944,128.59 649.944,128.59 Z"
   id="path4557"
   inkscape:connector-curvature="0"
   style="display:inline" />
	<path
   display="inline"
   d="m 581.344,208.971 -34.742,34.258 c 0,0 66.494,10.811 145.197,88.972 49.451,49.026 76.196,100.924 80.978,137.23 l 33.176,-33.232 c 0,0 11.554,-60.037 -73.863,-145.426 -83.94,-83.965 -150.746,-81.802 -150.746,-81.802 z"
   id="path4559"
   inkscape:connector-curvature="0"
   style="display:inline" />
</g>
<g
   id="delete_white"
   display="none"
   style="display:none"
   transform="translate(0,-976)">
	<path
   display="inline"
   d="m 824.049,420.143 c -0.688,-4.227 -3.254,-8.327 -7.104,-12.237 -31.01,31.48 -155.805,36.705 -305.008,36.705 -149.17,0 -273.873,-5.225 -305.007,-36.705 -3.851,3.91 -6.229,8.011 -7.105,12.237 l -0.28,0 0.093,2.283 c 0,0.25 -0.093,0.5 -0.093,0.78 0,0.596 0.186,1.159 0.25,1.723 l 24.313,497.553 0.03,0 c 2.161,39.054 46.814,98.009 287.799,98.009 241.016,0 285.702,-58.955 287.799,-98.009 l 0.186,0 24.316,-497.553 c 0.063,-0.563 0.25,-1.127 0.25,-1.723 0,-0.28 -0.188,-0.53 -0.188,-0.78 l 0.188,-2.283 -0.439,0 z"
   id="path4562"
   inkscape:connector-curvature="0"
   style="display:inline;fill:#ffffff" />
	<path
   display="inline"
   d="m 660.453,159.723 0,-117.47 c 0,-21.249 -17.4,-38.743 -38.742,-38.743 l -232.503,0 c -21.184,0 -38.615,17.494 -38.615,38.743 l 0,118.816 c -114.969,13.018 -193.671,39.429 -193.671,70 l 0,58.079 c 0,11.924 12.082,23.252 33.704,33.517 56.702,26.599 179.306,45.123 321.312,45.123 142.161,0 264.672,-18.524 321.438,-45.123 21.529,-10.265 33.703,-21.593 33.703,-33.517 l 0,-58.079 c -10e-4,-31.634 -84.741,-58.922 -206.626,-71.346 z m -235.572,-4.85 -9.764,0.594 0,-48.658 c 0,-21.279 2.942,-38.71 6.446,-38.71 3.63,0 23.94,0 45.25,0 l 77.479,0 c 21.184,0 41.588,0 45.158,0 3.533,0 6.475,17.431 6.475,38.71 l 0,47.877 c -26.943,-1.377 -54.949,-2.253 -83.989,-2.253 -30.04,0 -59.267,0.876 -87.055,2.44 z"
   id="path4564"
   inkscape:connector-curvature="0"
   style="display:inline;fill:#ffffff" />
</g>
<g
   id="delete_black_1_"
   display="none"
   style="display:none"
   transform="translate(0,-976)">
	<path
   display="inline"
   d="m 824.049,420.143 c -0.688,-4.227 -3.254,-8.327 -7.104,-12.237 -31.01,31.48 -155.805,36.705 -305.008,36.705 -149.17,0 -273.873,-5.225 -305.007,-36.705 -3.851,3.91 -6.229,8.011 -7.105,12.237 l -0.28,0 0.093,2.283 c 0,0.25 -0.093,0.5 -0.093,0.78 0,0.596 0.186,1.159 0.25,1.723 l 24.313,497.553 0.03,0 c 2.161,39.054 46.814,98.009 287.799,98.009 241.016,0 285.702,-58.955 287.799,-98.009 l 0.186,0 24.316,-497.553 c 0.063,-0.563 0.25,-1.127 0.25,-1.723 0,-0.28 -0.188,-0.53 -0.188,-0.78 l 0.188,-2.283 -0.439,0 z"
   id="path4567"
   inkscape:connector-curvature="0"
   style="display:inline" />
	<path
   display="inline"
   d="m 660.453,159.723 0,-117.47 c 0,-21.249 -17.4,-38.743 -38.742,-38.743 l -232.503,0 c -21.184,0 -38.615,17.494 -38.615,38.743 l 0,118.816 c -114.969,13.018 -193.671,39.429 -193.671,70 l 0,58.079 c 0,11.924 12.082,23.252 33.704,33.517 56.702,26.599 179.306,45.123 321.312,45.123 142.161,0 264.672,-18.524 321.438,-45.123 21.529,-10.265 33.703,-21.593 33.703,-33.517 l 0,-58.079 c -10e-4,-31.634 -84.741,-58.922 -206.626,-71.346 z m -235.572,-4.85 -9.764,0.594 0,-48.658 c 0,-21.279 2.942,-38.71 6.446,-38.71 3.63,0 23.94,0 45.25,0 l 77.479,0 c 21.184,0 41.588,0 45.158,0 3.533,0 6.475,17.431 6.475,38.71 l 0,47.877 c -26.943,-1.377 -54.949,-2.253 -83.989,-2.253 -30.04,0 -59.267,0.876 -87.055,2.44 z"
   id="path4569"
   inkscape:connector-curvature="0"
   style="display:inline" />
</g>
</svg>